<?xml version="1.0" encoding="UTF-8"?>
<svg width="100%" height="100%" viewBox="0 0 16 16" version="1.1" xmlns="http://www.w3.org/2000/svg" xmlns:xlink="http://www.w3.org/1999/xlink">
    <!-- Generator: Sketch 41.2 (35397) - http://www.bohemiancoding.com/sketch -->
    <title>doctor bag icon lg green filled</title>
    <desc>Created with Sketch.</desc>
    <defs></defs>
    <g id="Final-Screens-with-UI-Kit-Updates" stroke="none" stroke-width="1" fill="none" fill-rule="evenodd">
        <g id="screen-2" transform="translate(-24.000000, -444.000000)" fill="currentColor">
            <g id="available-resources" transform="translate(0.000000, 192.000000)">
                <g id="accordeon-open">
                    <g transform="translate(0.000000, 120.000000)">
                        <g id="accordion-child-row" transform="translate(8.000000, 120.000000)">
                            <g id="doctor-bag-icon-lg-green-filled" transform="translate(16.000000, 12.000000)">
                                <path d="M4,4 L0,4 L0,16 L16,16 L16,4 L12,4 L12,0 L4,0 L4,4 Z M6,4 L10,4 L10,2 L6,2 L6,4 Z M5,9 L5,11 L7,11 L7,13 L9,13 L9,11 L11,11 L11,9 L9,9 L9,7 L7,7 L7,9 L5,9 Z"></path>
                            </g>
                        </g>
                    </g>
                </g>
            </g>
        </g>
    </g>
</svg>
