<?xml version="1.0" encoding="UTF-8"?>
<svg width="16px" height="16px" viewBox="0 0 16 16" version="1.1" xmlns="http://www.w3.org/2000/svg" xmlns:xlink="http://www.w3.org/1999/xlink">
    <!-- Generator: Sketch 42 (36781) - http://www.bohemiancoding.com/sketch -->
    <title>icon info-circle-o</title>
    <desc>Created with Sketch.</desc>
    <defs>
        <path d="M8,16 C8,20.418 11.582,24 16,24 C20.418,24 24,20.418 24,16 C24,11.582 20.418,8 16,8 C11.582,8 8,11.582 8,16 Z M16,9 C19.86,9 23,12.14 23,16 C23,19.86 19.86,23 16,23 C12.14,23 9,19.86 9,16 C9,12.14 12.14,9 16,9 L16,9 Z M15,13 L17,13 L17,11 L15,11 L15,13 Z M17,19 L18,19 L18,20 L14,20 L14,19 L15,19 L15,15 L14,15 L14,14 L17,14 L17,19 Z" id="path-1"></path>
    </defs>
    <g id="eui-2.13" stroke="none" stroke-width="1" fill="none" fill-rule="evenodd">
        <g id="eui-2.13-icons" transform="translate(-832.000000, -296.000000)">
            <g id="eui-item/eui-icons" transform="translate(0.000000, 160.000000)">
                <g id="icon/icon-info-circle-o" transform="translate(824.000000, 128.000000)">
                    <mask id="mask-2" fill="white">
                        <use xlink:href="#path-1"></use>
                    </mask>
                    <use id="icon-info-circle-o" fill="#000000" xlink:href="#path-1"></use>
                </g>
            </g>
        </g>
    </g>
</svg>