<?xml version="1.0" encoding="UTF-8"?>
<svg width="16px" height="16px" viewBox="0 0 16 16" version="1.1" xmlns="http://www.w3.org/2000/svg" xmlns:xlink="http://www.w3.org/1999/xlink">
    <!-- Generator: Sketch 41.2 (35397) - http://www.bohemiancoding.com/sketch -->
    <title>doctor bag icon lg</title>
    <desc>Created with Sketch.</desc>
    <defs></defs>
    <g id="Final-Screens-with-UI-Kit-Updates" stroke="none" stroke-width="1" fill="none" fill-rule="evenodd">
        <g id="screen-12" transform="translate(-16.000000, -579.000000)" fill="#438282">
            <g id="Group" transform="translate(0.000000, 48.000000)">
                <g id="accordion-child-row" transform="translate(0.000000, 519.000000)">
                    <g id="doctor-bag-icon-lg-green-outline" transform="translate(16.000000, 12.000000)">
                        <path d="M0,4 L16,4 L16,16 L0,16 L0,4 Z M2,6 L14,6 L14,14 L2,14 L2,6 Z M6,2 L6,4 L4,4 L4,0 L12,0 L12,4 L10,4 L10,2 L6,2 Z M5,9 L5,11 L7,11 L7,13 L9,13 L9,11 L11,11 L11,9 L9,9 L9,7 L7,7 L7,9 L5,9 Z" id="doctor-bag-icon-lg"></path>
                    </g>
                </g>
            </g>
        </g>
    </g>
</svg>
